<svg width="19" height="19" viewBox="0 0 19 19" fill="none" xmlns="http://www.w3.org/2000/svg">
<path d="M14.437 7.10536L13.6918 7.18994V7.18994L14.437 7.10536ZM14.7911 10.2246L15.5363 10.14V10.14L14.7911 10.2246ZM4.20374 10.2246L3.45852 10.14V10.14L4.20374 10.2246ZM4.55776 7.10536L5.30298 7.18994L4.55776 7.10536ZM3.51856 11.7738L2.94745 11.2876H2.94745L3.51856 11.7738ZM15.4762 11.7738L14.9051 12.2599V12.2599L15.4762 11.7738ZM11.2944 3.46248H10.5444C10.5444 3.78306 10.7482 4.0682 11.0515 4.17204L11.2944 3.46248ZM7.70036 3.46248L7.9433 4.17204C8.2466 4.0682 8.45036 3.78306 8.45036 3.46248H7.70036ZM12.5747 16.0965C12.7201 15.7087 12.5235 15.2764 12.1356 15.131C11.7477 14.9857 11.3155 15.1823 11.1701 15.5701L11.8724 15.8333L12.5747 16.0965ZM7.82469 15.5701C7.67933 15.1823 7.24706 14.9857 6.85919 15.131C6.47132 15.2764 6.27473 15.7087 6.4201 16.0965L7.1224 15.8333L7.82469 15.5701ZM14.071 14.25V13.5H4.92379V14.25V15H14.071V14.25ZM14.437 7.10536L13.6918 7.18994L14.0458 10.3092L14.7911 10.2246L15.5363 10.14L15.1822 7.02078L14.437 7.10536ZM4.20374 10.2246L4.94896 10.3092L5.30298 7.18994L4.55776 7.10536L3.81255 7.02078L3.45852 10.14L4.20374 10.2246ZM3.51856 11.7738L4.08967 12.2599C4.5658 11.7006 4.86752 11.0266 4.94896 10.3092L4.20374 10.2246L3.45852 10.14C3.41243 10.5461 3.24027 10.9436 2.94745 11.2876L3.51856 11.7738ZM14.7911 10.2246L14.0458 10.3092C14.1273 11.0266 14.429 11.7006 14.9051 12.2599L15.4762 11.7738L16.0473 11.2876C15.7545 10.9436 15.5824 10.5461 15.5363 10.14L14.7911 10.2246ZM4.92379 14.25V13.5C4.45921 13.5 4.14544 13.2718 4.00498 13.0243C3.87192 12.7898 3.87218 12.5154 4.08967 12.2599L3.51856 11.7738L2.94745 11.2876C2.29645 12.0524 2.2756 13.0161 2.70041 13.7646C3.11781 14.5002 3.94091 15 4.92379 15V14.25ZM14.071 14.25V15C15.0539 15 15.877 14.5002 16.2944 13.7646C16.7192 13.0161 16.6983 12.0524 16.0473 11.2876L15.4762 11.7738L14.9051 12.2599C15.1226 12.5154 15.1229 12.7898 14.9898 13.0243C14.8493 13.2718 14.5356 13.5 14.071 13.5V14.25ZM11.2944 3.46248H12.0444V3.38037H11.2944H10.5444V3.46248H11.2944ZM14.437 7.10536L15.1822 7.02078C14.9532 5.00304 13.4587 3.41076 11.5374 2.75292L11.2944 3.46248L11.0515 4.17204C12.5223 4.67563 13.539 5.84379 13.6918 7.18994L14.437 7.10536ZM7.70036 3.46248H8.45036V3.38037H7.70036H6.95036V3.46248H7.70036ZM4.55776 7.10536L5.30298 7.18994C5.45576 5.84379 6.47251 4.67563 7.9433 4.17204L7.70036 3.46248L7.45741 2.75292C5.53608 3.41076 4.04155 5.00304 3.81255 7.02078L4.55776 7.10536ZM9.4974 1.58333V2.33333C10.0757 2.33333 10.5444 2.80211 10.5444 3.38037H11.2944H12.0444C12.0444 1.97368 10.9041 0.833334 9.4974 0.833334V1.58333ZM9.4974 1.58333V0.833334C8.0907 0.833334 6.95036 1.97368 6.95036 3.38037H7.70036H8.45036C8.45036 2.80211 8.91913 2.33333 9.4974 2.33333V1.58333ZM11.8724 15.8333L11.1701 15.5701C10.9384 16.1885 10.2934 16.6667 9.4974 16.6667V17.4167V18.1667C10.8943 18.1667 12.115 17.3231 12.5747 16.0965L11.8724 15.8333ZM9.4974 17.4167V16.6667C8.70136 16.6667 8.05644 16.1885 7.82469 15.5701L7.1224 15.8333L6.4201 16.0965C6.87977 17.3231 8.10046 18.1667 9.4974 18.1667V17.4167Z" fill="#9B9790"/>
</svg>
